<svg xmlns="http://www.w3.org/2000/svg" width="1280" height="720" viewBox="0 0 1280 720" fill="none">
  <rect width="1280" height="720" fill="#F3EDE2"/>
  <rect x="48" y="40" width="1184" height="92" rx="24" fill="#17352F"/>
  <rect x="72" y="64" width="280" height="18" rx="9" fill="#A6DBC8"/>
  <rect x="72" y="94" width="460" height="16" rx="8" fill="#EAF6F1" fill-opacity="0.7"/>
  <rect x="48" y="164" width="360" height="508" rx="28" fill="#FFF8F0" stroke="#DCCFBA"/>
  <rect x="436" y="164" width="796" height="144" rx="28" fill="#17352F"/>
  <rect x="468" y="198" width="220" height="18" rx="9" fill="#A6DBC8"/>
  <rect x="468" y="230" width="320" height="42" rx="21" fill="#C4512B"/>
  <rect x="48" y="164" width="360" height="86" rx="20" fill="#FFFDF8" stroke="#E6DCCB"/>
  <rect x="76" y="192" width="180" height="14" rx="7" fill="#66746F" fill-opacity="0.45"/>
  <rect x="76" y="220" width="240" height="14" rx="7" fill="#17352F" fill-opacity="0.75"/>
  <rect x="48" y="270" width="360" height="126" rx="20" fill="#FFFDF8" stroke="#E6DCCB"/>
  <rect x="48" y="416" width="360" height="126" rx="20" fill="#FFFDF8" stroke="#E6DCCB"/>
  <rect x="48" y="562" width="360" height="110" rx="20" fill="#FFFDF8" stroke="#E6DCCB"/>
  <rect x="436" y="332" width="388" height="160" rx="24" fill="#FFF8F0" stroke="#DCCFBA"/>
  <rect x="844" y="332" width="388" height="160" rx="24" fill="#FFF8F0" stroke="#DCCFBA"/>
  <rect x="436" y="512" width="796" height="160" rx="24" fill="#FFF8F0" stroke="#DCCFBA"/>
  <text x="640" y="372" text-anchor="middle" fill="#17352F" font-size="30" font-family="Arial, sans-serif" font-weight="700">运行截图占位：首页总览</text>
  <text x="640" y="414" text-anchor="middle" fill="#66746F" font-size="18" font-family="Arial, sans-serif">建议替换为系统首页、主推荐岗位、结果总览区域截图</text>
</svg>
